<?xml version="1.0" standalone="no"?>
<!DOCTYPE svg PUBLIC "-//W3C//DTD SVG 20010904//EN"
 "http://www.w3.org/TR/2001/REC-SVG-20010904/DTD/svg10.dtd">
<svg version="1.0" xmlns="http://www.w3.org/2000/svg"
 width="1024.000000pt" height="1024.000000pt" viewBox="0 0 1024.000000 1024.000000"
 preserveAspectRatio="xMidYMid meet">

<g transform="translate(0.000000,1024.000000) scale(0.100000,-0.100000)"
fill="#000000" stroke="none">
<path d="M4758 9018 c-45 -39 -132 -115 -193 -168 -162 -142 -221 -188 -308
-238 -65 -38 -77 -49 -74 -66 3 -12 13 -66 22 -121 10 -55 21 -104 25 -108 12
-13 55 10 91 48 43 47 117 98 248 170 l104 57 77 -26 c42 -15 102 -30 133 -33
57 -6 57 -6 68 -47 6 -23 37 -109 70 -193 32 -83 59 -158 59 -165 0 -7 -15
-23 -33 -34 -48 -33 -234 -199 -399 -359 -116 -112 -148 -148 -148 -169 0 -36
42 -55 153 -68 191 -21 451 7 670 73 63 18 71 19 92 5 15 -10 26 -29 29 -48
10 -70 15 -184 8 -195 -6 -9 -52 -15 -143 -18 -73 -3 -153 -8 -177 -11 l-43
-5 32 -57 c18 -31 42 -73 53 -93 l19 -35 -26 -55 c-15 -30 -25 -64 -22 -77 3
-20 1 -22 -18 -16 -12 3 -48 22 -80 41 l-57 35 -133 -61 c-160 -74 -310 -154
-314 -168 -8 -23 168 -99 657 -285 538 -204 674 -222 1065 -141 98 20 499 144
514 159 9 9 -48 59 -149 132 -58 42 -150 111 -205 152 -128 98 -120 94 -148
66 -48 -47 -185 -106 -321 -136 -75 -17 -253 -13 -332 6 -89 21 -191 69 -205
96 -15 28 7 148 28 148 8 0 67 -14 131 -30 142 -37 237 -46 325 -31 73 13 223
77 248 107 18 21 109 222 109 240 0 16 -217 28 -334 19 l-93 -7 -7 73 c-4 41
-9 81 -12 90 -3 12 9 19 53 29 73 16 122 40 162 81 47 47 61 80 90 223 l27
131 39 0 c38 0 40 -1 53 -48 13 -47 14 -48 45 -41 39 8 152 64 227 112 114 73
285 251 296 309 12 61 -4 67 -165 65 -77 -2 -166 -7 -198 -12 -76 -13 -140
-13 -128 -1 6 5 34 18 64 28 137 45 35 68 -309 68 -140 0 -300 -4 -355 -9
l-100 -8 21 22 c22 22 140 70 174 70 11 0 20 4 20 9 0 18 -29 35 -385 231
-133 73 -202 112 -341 192 -72 41 -177 112 -217 145 -16 13 -32 23 -37 23 -4
0 -46 -32 -92 -72z"/>
<path d="M3147 8839 c-170 -40 -314 -199 -325 -358 -5 -73 18 -163 53 -207 20
-26 28 -28 91 -28 87 0 130 15 183 63 55 51 54 71 -3 71 -89 0 -138 78 -98
156 32 63 87 100 166 110 180 25 320 -160 248 -326 -28 -63 -83 -112 -188
-168 -110 -58 -113 -65 -113 -250 l-1 -133 -50 -49 c-27 -27 -50 -52 -50 -57
0 -4 23 -36 50 -69 l50 -62 -2 -173 -3 -174 -78 -6 c-51 -3 -81 -10 -87 -19
-5 -8 -6 -108 -4 -224 l5 -210 57 -52 c31 -29 71 -60 87 -69 l30 -17 -3 -2337
-2 -2338 23 -34 c30 -45 90 -53 131 -17 l27 23 2 2297 c1 1263 5 2299 9 2303
6 7 59 -24 169 -99 l36 -24 2 -363 c2 -376 14 -576 51 -832 30 -207 51 -307
65 -307 6 0 121 113 256 251 258 266 411 413 679 649 232 205 243 214 303 234
47 16 63 17 127 7 41 -7 76 -14 79 -17 3 -3 -3 -42 -13 -87 -9 -45 -24 -129
-32 -187 -8 -58 -30 -181 -49 -275 -19 -93 -39 -212 -45 -264 -12 -109 -32
-200 -156 -721 -19 -80 -45 -194 -59 -255 -14 -60 -38 -159 -54 -220 -16 -60
-48 -193 -71 -295 -81 -354 -232 -979 -268 -1107 -14 -51 -23 -96 -19 -99 9
-9 82 36 143 88 28 24 107 88 175 143 310 252 513 453 717 709 56 69 105 141
237 346 49 75 112 187 125 220 8 19 24 51 36 72 39 62 172 340 207 434 56 147
106 308 138 448 85 372 108 528 116 787 l6 177 45 6 c65 9 110 7 117 -4 3 -5
12 -103 20 -217 16 -223 17 -232 65 -366 20 -59 41 -153 61 -285 16 -108 39
-228 50 -265 11 -38 29 -121 40 -185 11 -64 21 -118 24 -120 2 -3 21 8 41 24
20 16 64 49 98 73 33 24 90 67 126 96 36 29 81 60 100 70 19 9 60 36 90 60 30
23 65 47 76 53 21 11 21 12 -21 134 -46 131 -144 397 -199 538 -19 47 -54 157
-80 245 -25 88 -73 240 -106 337 -33 97 -60 186 -60 197 0 11 -4 22 -9 25 -4
3 -76 -17 -159 -44 -189 -62 -359 -105 -479 -121 -110 -14 -285 -7 -393 16
-91 19 -318 93 -455 147 -168 67 -564 217 -667 254 -54 19 -132 50 -175 68
l-78 35 -25 -23 c-40 -37 -116 -76 -147 -76 -34 0 -163 35 -344 93 -112 36
-147 52 -199 92 -59 46 -62 49 -56 84 3 20 10 96 16 170 10 110 9 135 -2 142
-7 5 -40 9 -74 9 -34 0 -82 3 -108 6 l-46 7 0 184 0 185 50 55 c28 30 50 61
50 68 0 7 -23 36 -51 63 l-51 51 7 94 7 94 42 20 c108 53 225 187 272 313 26
70 24 210 -5 282 -27 70 -96 149 -174 199 -91 59 -233 83 -340 58z"/>
<path d="M4783 5482 c-29 -64 -68 -158 -87 -208 -90 -240 -186 -383 -406 -609
-91 -93 -201 -210 -244 -260 -163 -187 -306 -435 -403 -698 -40 -109 -51 -157
-38 -157 3 0 47 16 96 35 102 39 157 44 209 17 32 -16 36 -22 45 -82 6 -36 15
-71 19 -79 14 -23 146 -103 164 -99 13 2 21 29 38 118 45 238 111 422 238 665
68 128 91 162 157 230 43 44 85 97 93 117 9 19 24 85 35 144 11 60 38 197 61
304 68 325 70 339 77 513 3 92 4 167 2 167 -2 -1 -27 -53 -56 -118z"/>
<path d="M6372 5213 c-12 -38 -25 -88 -28 -113 -3 -25 -17 -88 -29 -140 -13
-52 -33 -142 -44 -200 -18 -94 -42 -182 -87 -319 -44 -133 -322 -707 -408
-841 -23 -36 -62 -96 -86 -135 -24 -38 -59 -88 -76 -110 -17 -22 -54 -73 -81
-112 -74 -107 -243 -281 -463 -477 -217 -192 -444 -386 -505 -431 -59 -43
-165 -146 -165 -160 0 -7 22 -30 49 -51 244 -193 458 -401 667 -651 52 -61 98
-115 104 -118 5 -3 17 -2 25 3 9 4 113 105 233 223 475 469 1164 1094 1311
1189 l23 15 -22 110 c-12 61 -43 218 -70 350 -28 132 -59 296 -70 365 -11 69
-27 161 -35 205 -9 44 -24 159 -35 255 -11 96 -31 231 -45 300 -34 166 -49
273 -84 590 -26 230 -41 320 -54 320 -2 0 -13 -30 -25 -67z"/>
<path d="M7028 4605 c-49 -52 -88 -101 -88 -109 0 -33 -42 -125 -80 -176 -34
-46 -40 -61 -40 -103 0 -44 4 -54 38 -87 20 -20 46 -41 57 -47 17 -10 17 -13
5 -29 -8 -9 -38 -34 -66 -55 l-52 -38 27 -92 c15 -51 32 -94 38 -96 17 -6 169
74 288 151 l100 65 -3 78 c-2 43 -14 143 -27 223 -13 80 -29 188 -35 240 -14
110 -35 170 -59 169 -9 0 -55 -43 -103 -94z"/>
</g>
</svg>
